<svg xmlns="http://www.w3.org/2000/svg" width="40" height="30" viewBox="0 0 40 30"><defs><style>.a{fill:#fff;}</style></defs><g transform="translate(0 11.846)"><path class="a" d="M36.471,23.208H3.529A3.344,3.344,0,0,1,0,20.054,3.344,3.344,0,0,1,3.529,16.9H36.471A3.344,3.344,0,0,1,40,20.054,3.344,3.344,0,0,1,36.471,23.208Z" transform="translate(0 -16.9)"/></g><g transform="translate(0 0)"><path class="a" d="M36.471,6.308H3.529A3.344,3.344,0,0,1,0,3.154,3.344,3.344,0,0,1,3.529,0H36.471A3.344,3.344,0,0,1,40,3.154,3.344,3.344,0,0,1,36.471,6.308Z" transform="translate(0 0)"/></g><g transform="translate(0 23.692)"><path class="a" d="M36.471,40.108H3.529a3.174,3.174,0,1,1,0-6.308H36.471a3.174,3.174,0,1,1,0,6.308Z" transform="translate(0 -33.8)"/></g></svg>