<svg xmlns="http://www.w3.org/2000/svg" width="50" height="50" viewBox="0 0 50 50"><defs><style>.a{fill:#dba111;}.b{fill:#034694;}.c{fill:#fff;}.d{fill:#d1d3d4;}.e{fill:#ed1c24;}.f{fill:#6a7ab5;}.g{fill:none;}</style></defs><path class="a" d="M50,25A25,25,0,1,1,25,0,25,25,0,0,1,50,25"/><path class="b" d="M49.833,25.667A24.166,24.166,0,1,1,25.667,1.5,24.165,24.165,0,0,1,49.833,25.667" transform="translate(-0.667 -0.667)"/><path class="a" d="M48.443,31.222A17.222,17.222,0,1,1,31.222,14,17.221,17.221,0,0,1,48.443,31.222" transform="translate(-6.222 -6.222)"/><path class="c" d="M48.34,31.639a16.7,16.7,0,1,1-16.7-16.7,16.7,16.7,0,0,1,16.7,16.7" transform="translate(-6.639 -6.639)"/><path class="a" d="M17.532,70.063l.639.609.436-.459-1.3-1.239-.167.175L15.4,70.979l.663.631.764-.8.582.554.436-.458-.581-.555.273-.288" transform="translate(-6.842 -30.655)"/><path class="a" d="M22.642,73.794a1.368,1.368,0,0,0-1.558-1.109,1.543,1.543,0,0,0-1.227,1.728,1.367,1.367,0,0,0,1.558,1.107,1.479,1.479,0,0,0,.956-.62,1.5,1.5,0,0,0,.29-.876,1.321,1.321,0,0,0-.02-.23m-1.867.972c-.3-.215-.053-.664.124-.911s.519-.634.822-.419.021.717-.121.916-.507.641-.825.415Z" transform="translate(-8.817 -32.296)"/><path class="a" d="M26.921,75.824a1.382,1.382,0,0,0-1.88.673,1.481,1.481,0,0,0-.1,1.136,1.368,1.368,0,0,0,1.707.861,1.472,1.472,0,0,0,.852-.755,1.383,1.383,0,0,0-.576-1.914m-.774,2.047a.31.31,0,0,1-.248-.025.35.35,0,0,1-.188-.338,1.427,1.427,0,0,1,.174-.582c.138-.273.418-.7.751-.536a.308.308,0,0,1,.167.184,1.429,1.429,0,0,1-.655,1.3Z" transform="translate(-11.053 -33.633)"/><path class="a" d="M30.838,77.584l-.129.369s.329.116.429.149l-.707,2.018.862.3s.582-1.656.707-2.017l.43.15.209-.6-1.722-.6-.08.229" transform="translate(-13.525 -34.38)"/><path class="a" d="M36.219,79.01l-1.165-.246L35,79l-.521,2.474,1.186.251a1,1,0,0,0,.771-.107.845.845,0,0,0,.356-.542.88.88,0,0,0,.02-.184.739.739,0,0,0-.149-.447A.753.753,0,0,0,36.936,80a.788.788,0,0,0,.016-.16.841.841,0,0,0-.733-.834M35.9,80.9a.27.27,0,0,1-.078.159.309.309,0,0,1-.214.008l-.1-.02c.038-.178.063-.3.1-.476.051.012.115.025.115.025a.214.214,0,0,1,.182.228.338.338,0,0,1-.008.077Zm-.08-1.324a.346.346,0,0,1,.206.1.149.149,0,0,1,.02.082.393.393,0,0,1-.008.071c-.016.072-.037.173-.239.132l-.06-.014c.032-.15.047-.224.08-.375Z" transform="translate(-15.326 -35.006)"/><path class="a" d="M40.468,79.5,39.2,82.095l.723.055.274-.577.456.036.2.613.962.075L40.74,78.964l-.271.538" transform="translate(-17.423 -35.095)"/><path class="a" d="M45.817,81.974l-.089-2.1-.913.038.115,2.768,1.831-.076-.027-.664s-.654.028-.916.037" transform="translate(-19.918 -35.498)"/><path class="a" d="M50.145,81.516l-.326-2.08-.239.038-.665.1.429,2.738,1.811-.284-.1-.657s-.646.1-.906.141" transform="translate(-21.74 -35.305)"/><path class="a" d="M58.847,78.57a.579.579,0,0,1-.366.528.444.444,0,0,1-.352,0,.922.922,0,0,1-.441-.515.959.959,0,0,1-.064-.713.529.529,0,0,1,.312-.276c.17-.068.332-.005.553.125l.2.12.337-.532-.2-.131a1.325,1.325,0,0,0-1.217-.134,1.437,1.437,0,0,0-.8.767,1.477,1.477,0,0,0,0,1.142,1.415,1.415,0,0,0,1.832.8,1.265,1.265,0,0,0,.851-1.141l.017-.241-.662-.049-.008.254" transform="translate(-25.2 -34.2)"/><path class="a" d="M62.941,77.032c-.187-.333-1.028-1.841-1.028-1.841l-.211.119-.588.328,1.352,2.419,1.6-.893-.324-.581s-.572.319-.8.448" transform="translate(-27.162 -33.418)"/><path class="a" d="M66.224,71.79l-.2.143-.343.252,1.122,1.529a.181.181,0,0,1,.047.142.391.391,0,0,1-.166.217.289.289,0,0,1-.195.045.214.214,0,0,1-.144-.095L65.24,72.512l-.739.541,1.1,1.5a.914.914,0,0,0,.6.391,1.16,1.16,0,0,0,.85-.257.924.924,0,0,0,.317-1.329L66.224,71.79" transform="translate(-28.667 -31.907)"/><path class="a" d="M71.349,70.02a.758.758,0,0,0-.6-.244.747.747,0,0,0-.212-.472.837.837,0,0,0-1.223.039l-.856.827,1.928,1.991.87-.844a.993.993,0,0,0,.342-.7.833.833,0,0,0-.25-.6m-1.457-.067a.177.177,0,0,1,.064.116.227.227,0,0,1-.089.155l-.042.043-.269-.277c.193-.177.273-.1.336-.037Zm.457.685a.233.233,0,0,1,.35.027.26.26,0,0,1,.089.151v0a.312.312,0,0,1-.112.182l-.073.069-.338-.348.084-.083Z" transform="translate(-30.426 -30.692)"/><path class="c" d="M17.732,70.012l.638.61.186-.2-1.037-.989-.042.044-1.619,1.7.4.381s.69-.723.764-.8l.583.555.186-.2-.583-.555.525-.551" transform="translate(-7.048 -30.861)"/><path class="c" d="M22.127,73.214a1.158,1.158,0,0,0-.867-.206,1.364,1.364,0,0,0-1.079,1.519,1.184,1.184,0,0,0,1.349.958,1.3,1.3,0,0,0,.838-.544,1.341,1.341,0,0,0,.257-.772,1.243,1.243,0,0,0-.017-.2,1.162,1.162,0,0,0-.481-.754M21.893,74.6c-.174.243-.627.778-1.078.457s-.093-.922.081-1.167.627-.779,1.075-.46S22.067,74.357,21.893,74.6Z" transform="translate(-8.962 -32.441)"/><path class="c" d="M26.984,76.134a1.2,1.2,0,0,0-1.636.593,1.3,1.3,0,0,0-.092,1,1.189,1.189,0,0,0,1.478.744,1.3,1.3,0,0,0,.747-.664,1.206,1.206,0,0,0-.5-1.67m-1.022,2.02c-.491-.247-.23-.9-.094-1.164s.5-.864.994-.615a.488.488,0,0,1,.259.29,1.58,1.58,0,0,1-.773,1.526A.484.484,0,0,1,25.962,78.153Z" transform="translate(-11.198 -33.78)"/><path class="c" d="M31.195,77.828l-.07.2.429.151-.707,2.017.52.183s.67-1.909.707-2.017l.429.15.09-.253-1.38-.484-.019.057" transform="translate(-13.71 -34.565)"/><path class="c" d="M36.355,79.359l-.988-.208-.013.06-.483,2.3,1.008.212a.82.82,0,0,0,.634-.081.656.656,0,0,0,.277-.427.75.75,0,0,0,.016-.146.586.586,0,0,0-.277-.493.583.583,0,0,0,.414-.559.66.66,0,0,0-.588-.654m-.345.2a.512.512,0,0,1,.34.189.322.322,0,0,1,.05.181.528.528,0,0,1-.012.108.341.341,0,0,1-.453.272l-.238-.049c.02-.094.135-.64.155-.733l.159.033Zm-.076,1.025a.39.39,0,0,1,.325.415.548.548,0,0,1-.01.106.4.4,0,0,1-.157.273.459.459,0,0,1-.35.034l-.276-.058.175-.832.293.062Z" transform="translate(-15.498 -35.178)"/><path class="c" d="M40.857,79.969l-1.149,2.352.331.025s.243-.511.275-.576l.7.055.2.613.57.044-.853-2.646-.073.134m-.126.946c.056.178.162.52.2.632l-.487-.037Z" transform="translate(-17.648 -35.482)"/><path class="c" d="M45.793,82.316c0-.115-.089-2.1-.089-2.1l-.059,0-.492.02.1,2.406,1.468-.062-.013-.3-.916.038" transform="translate(-20.068 -35.65)"/><path class="c" d="M50.16,81.892c-.018-.113-.327-2.082-.327-2.082l-.059.009-.485.077.373,2.379,1.451-.229-.047-.3-.906.144" transform="translate(-21.906 -35.471)"/><path class="c" d="M59.173,78.719a.759.759,0,0,1-.479.694.621.621,0,0,1-.491,0,1.088,1.088,0,0,1-.539-.615,1.144,1.144,0,0,1-.062-.853.708.708,0,0,1,.413-.372.791.791,0,0,1,.712.137l.051.03.148-.232-.049-.033a1.146,1.146,0,0,0-1.051-.117,1.255,1.255,0,0,0-.7.67,1.3,1.3,0,0,0,0,1,1.232,1.232,0,0,0,1.6.7,1.081,1.081,0,0,0,.736-.985l0-.061-.291-.02,0,.062" transform="translate(-25.346 -34.345)"/><path class="c" d="M63.069,77.478c-.057-.1-1.028-1.839-1.028-1.839l-.053.03-.428.24,1.173,2.1,1.282-.716-.146-.263s-.71.4-.8.448" transform="translate(-27.36 -33.617)"/><path class="c" d="M66.388,72.246l-.05.036-.2.144,1.015,1.383a.366.366,0,0,1,.08.277.569.569,0,0,1-.237.336.462.462,0,0,1-.33.079.4.4,0,0,1-.265-.167l-1-1.367-.444.327,1,1.357a.734.734,0,0,0,.485.319,1.024,1.024,0,0,0,.715-.222.746.746,0,0,0,.279-1.076l-1.046-1.427" transform="translate(-28.871 -32.109)"/><path class="c" d="M71.424,70.29a.589.589,0,0,0-.672-.142.546.546,0,0,0,.031-.175.569.569,0,0,0-.171-.4.655.655,0,0,0-.966.043l-.725.7,1.674,1.729.741-.719a.813.813,0,0,0,.287-.569.652.652,0,0,0-.2-.469m-1.081-.075a.415.415,0,0,1-.142.283l-.174.17c-.068-.069-.456-.469-.522-.54l.116-.111c.227-.221.425-.235.608-.046a.351.351,0,0,1,.114.245Zm.461,1.254-.59-.61.215-.208a.422.422,0,0,1,.608.031.408.408,0,0,1,.139.278v0a.469.469,0,0,1-.168.311Z" transform="translate(-30.631 -30.836)"/><path class="a" d="M21.154,13.989l-1.011.273.116.362a1.121,1.121,0,0,1-.329,1.2.871.871,0,0,1-.652.227,1.74,1.74,0,0,1-1.111-.638,1.811,1.811,0,0,1-.554-1.229,1.017,1.017,0,0,1,.39-.709,1.18,1.18,0,0,1,1.081-.136l.346.068.224-.968-.348-.085a2.319,2.319,0,0,0-2.086.484,2.512,2.512,0,0,0-.207,3.626,2.481,2.481,0,0,0,3.5.252,2.216,2.216,0,0,0,.743-2.377l-.1-.348" transform="translate(-7.261 -5.459)"/><path class="a" d="M27.333,6.108,26.3,6.594l.774,1.642-.874.412-.775-1.642-1.359.642,2.07,4.39L27.5,11.4s-.641-1.358-.848-1.8l.875-.412.847,1.8,1.36-.642L27.662,5.953l-.329.155" transform="translate(-10.696 -2.646)"/><path class="a" d="M36.439,7.838c-.066-.327-.134-.66-.2-.986l1.536-.31-.2-.975-1.537.311c-.06-.3-.111-.55-.171-.849L37.5,4.7l-.2-.975-.357.072L34.2,4.352l.96,4.758,3.129-.633-.2-.974-1.655.334" transform="translate(-15.201 -1.655)"/><path class="a" d="M44.934,3.5l-1.5-.031-.007.363-.094,4.49,3.159.066.023-1.051L44.853,7.3l.081-3.8" transform="translate(-19.257 -1.54)"/><path class="a" d="M52.909,6.378c-.39-.287-.5-.4-.465-.558a.317.317,0,0,1,.388-.271c.169.043.337.132.411.5l.082.4.994-.336L54.257,5.8a1.787,1.787,0,0,0-2.614-1.123,1.516,1.516,0,0,0-.7.94,1.593,1.593,0,0,0,.865,1.792c.455.325.57.452.5.724a.319.319,0,0,1-.15.2.409.409,0,0,1-.3.049c-.239-.059-.342-.172-.443-.481l-.122-.37-1,.408.1.317A1.718,1.718,0,0,0,51.76,9.437,1.662,1.662,0,0,0,53.824,8.28a1.717,1.717,0,0,0-.915-1.9" transform="translate(-22.356 -1.974)"/><path class="a" d="M59.662,10.008l1.4.707.449-.888-1.4-.706.389-.773,1.485.75.448-.888L59.607,6.783l-.163.323-2.027,4.009,2.849,1.439.449-.887-1.507-.761c.15-.3.3-.6.453-.9" transform="translate(-25.519 -3.015)"/><path class="a" d="M67.964,13.08l-4.527,2.343.866.753s.747-.4,1.019-.54l.7.607c-.1.289-.374,1.1-.374,1.1l1.193,1.038,1.936-5.708-.811.405" transform="translate(-28.194 -5.633)"/><path class="c" d="M21.181,14.478l-.534.145.039.121a1.358,1.358,0,0,1-.4,1.455,1.11,1.11,0,0,1-.827.287,1.956,1.956,0,0,1-1.278-.721,2.039,2.039,0,0,1-.614-1.405,1.267,1.267,0,0,1,.473-.875,1.424,1.424,0,0,1,1.288-.19l.116.022.117-.506-.116-.029a2.079,2.079,0,0,0-1.869.433,2.275,2.275,0,0,0-.184,3.283,2.239,2.239,0,0,0,3.154.229,1.965,1.965,0,0,0,.668-2.13l-.032-.117" transform="translate(-7.457 -5.652)"/><path class="c" d="M27.694,6.584l-.812.384.774,1.641-1.313.619-.773-1.642-.923.435,1.863,3.951.922-.434-.848-1.8L27.9,9.122l.848,1.8.921-.435L27.8,6.533l-.109.051" transform="translate(-10.954 -2.903)"/><path class="c" d="M36.478,8.352c-.038-.19-.256-1.271-.294-1.461l1.535-.31-.1-.5-1.536.309c-.037-.186-.229-1.137-.266-1.323l1.629-.329-.1-.5-2.629.53.865,4.283,2.654-.536-.1-.5-1.655.334" transform="translate(-15.429 -1.884)"/><path class="c" d="M44.884,3.931l-1.019-.022,0,.12-.09,4.248,2.675.057.012-.567L44.8,7.732c.005-.227.08-3.8.08-3.8" transform="translate(-19.454 -1.738)"/><path class="c" d="M53.128,5.508a.777.777,0,0,1,.59.681l.028.134.531-.18-.02-.1a1.5,1.5,0,0,0-1.115-1.112,1.489,1.489,0,0,0-1.136.149,1.281,1.281,0,0,0-.589.792c-.209.835.335,1.223.771,1.535s.708.531.595.979a.554.554,0,0,1-.261.349.652.652,0,0,1-.481.076.806.806,0,0,1-.614-.64l-.041-.123-.552.225.032.106A1.5,1.5,0,0,0,52.058,9.4a1.421,1.421,0,0,0,1.769-.982c.219-.88-.358-1.305-.826-1.647-.4-.293-.636-.489-.555-.812a.548.548,0,0,1,.682-.447" transform="translate(-22.593 -2.167)"/><path class="c" d="M60.655,8.283l1.483.749.231-.455L59.976,7.368l-.055.108L58,11.268l2.415,1.221.23-.455-1.506-.762c.087-.173.585-1.156.671-1.33l1.4.706.231-.455-1.4-.706.608-1.2" transform="translate(-25.78 -3.275)"/><path class="c" d="M68.419,13.688l-4.21,2.179.47.409,1.019-.54.947.825c-.045.133-.375,1.1-.375,1.1l.8.695,1.627-4.8-.277.13m-2.233,1.8,1.018-.529c-.115.33-.306.873-.379,1.084C66.663,15.9,66.347,15.624,66.186,15.485Z" transform="translate(-28.537 -6.026)"/><path class="d" d="M49.945,34.619a2,2,0,0,0-2.658-.888,2.489,2.489,0,0,0-1.114.819c.742-2.118,3.765-2.567,3.765-4.538,0-3.3-4.69-2.378-4.008,0a.859.859,0,1,1,1.717,0c0,1.277-2.994,2.114-2.994,4.272,0,2.378,2.379,2.6,2.138,4.773a1.06,1.06,0,0,1-1.028.868c-3.643,0-2.343-4.485-3.616-5.849l.067-.921a1.337,1.337,0,0,0,1.4-2.217c0,.792-1.65.749-1.65-.749,0-2.026,1.894-.969,1.986-.521a4.139,4.139,0,0,1,0-1.631c-1.021.329-1.117-.261-.987-.489a.879.879,0,0,1,.744-.573.76.76,0,0,1,.42.082c.127.087.22-.112.2.073.109-.166.066.041.171-.125A3.467,3.467,0,0,1,45,26.4l-.011-.374.3.109.286-.462c-.308-.639-.726-.331-1.034-1.123-.258-.067-4.269.369-4.153-1.231-.327,0-1.1.179-.622.831-.373.045-.642-.379-1.2.767.7-.132.34.655.34.879,0,1.451-1.932,1.427-1.932.747a1.093,1.093,0,0,0,.5,1.685,4.333,4.333,0,0,1-.929,1.729,5.588,5.588,0,0,1-3.461-1.066,3.116,3.116,0,0,0-.965-.673v-.48a3.719,3.719,0,0,0,1.251-1.084,2.113,2.113,0,0,0,.48-1.53c-.007-.068-.017-.136-.029-.2,0-.021-.009-.041-.014-.062-.01-.046-.021-.09-.034-.136-.006-.022-.012-.044-.019-.066-.015-.046-.031-.089-.049-.133-.007-.018-.013-.038-.021-.055-.025-.058-.052-.113-.081-.169-.013-.022-.026-.043-.038-.064s-.04-.067-.061-.1l-.054-.077-.058-.074c-.021-.026-.042-.054-.065-.08s-.032-.034-.048-.05a2.12,2.12,0,0,0-.184-.178l-.018-.015c-.036-.031-.075-.06-.113-.089l-.031-.022c-.041-.029-.082-.057-.125-.083l-.007,0a2.384,2.384,0,0,0-1.437-.343,2.175,2.175,0,0,0-.428,4.293,2.435,2.435,0,0,1-.643.278l.037.023.012.007.042.024.012.006.065.032.012,0c.021.01.042.02.065.028l.02.008a1.676,1.676,0,0,0,.185.063l.028.007.084.02.029.006c.036.007.074.013.113.018l.01,0v.273l-.041.007c-.412.068-.68.195-.8.562s0,.5.2.76c-.163.291-.59.4-.033,1.044a.639.639,0,0,0,.365.748,1.975,1.975,0,0,0,.313.078v4.828a1.312,1.312,0,0,0-.624.638s-.283-.629-.265.617c.322-.25.2.289.2.289-.438.568.118.537.118.537.378-.377.3.171.3.171a1.3,1.3,0,0,0,.274.931v3.678h-.321l0,1.015h.561a.782.782,0,0,0-.492.785.818.818,0,0,0,.894.72.8.8,0,0,0,.755-.85.789.789,0,0,0-.494-.656h.518l0-1.015h-.309V39.84a.765.765,0,0,0,.207.075.752.752,0,0,0,.09.012.313.313,0,0,0,.041,0,.872.872,0,0,1,.173-.713,1.386,1.386,0,0,1,.538-.461c.648-.325,1.531-.243,1.8.286a7.444,7.444,0,0,0,3.112-2.123l.824,1.4c-1.747.584-5.551,3.891-2.91,5.037,0,.333-.046,2.808-1.632,2.611-2.285-.281-2.855.664-2.416,1.727a1.01,1.01,0,0,0,.484,1.207c-.1-.518.145-.947,1.09-.941,0,.944.605,1.115.605,1.115a1.02,1.02,0,0,1,1.066-1.106c0,.666.771.92.771.92a.739.739,0,0,1,.679-.92c2.216-.386.135-2.665,3.5-3.293,0,0-1.678-.253-1.678-1.17,0-.835,1.519-1.406,2.042-1.406,1.072,2.049,2.237,2.065,2.543,2.08.475.53.316,2.318-.37,2.283-2.51-.135-2.418,1.392-2.137,1.7a1.158,1.158,0,0,0,.429.935c0-.635.6-.814,1.38-.772-.041.776.454.892.454.892a.849.849,0,0,1,1-.892.723.723,0,0,0,.513.708.634.634,0,0,1,.678-.695c1.387,0-.627-2.974,2.08-5.914-2.378,1.1-3.644-1.651-3.644-2.179,1.222,1.43,5.186,1.716,5.186-.727,0-2.334-2.566-3.2-1.365-4.1.7-.519,2.071.53,1.285,1.613a2,2,0,0,0,1.409-2.422m-15.2.074a16.225,16.225,0,0,1-2.315,1.486.771.771,0,0,1-.309.05V31.672a5.164,5.164,0,0,1,1.436.369c.651.355.651,1.089-.171,1.263.519.994,2.317.507,2.709-.3.192-.017.362.326.521.65-.252.131-.769.392-1.871,1.04Zm10.036-7.553c-.1.134-.2.267-.281.381a1.18,1.18,0,0,0,2.189-.714c0-.024-.007-.045-.01-.068a1.03,1.03,0,0,1-.968.667A1.205,1.205,0,0,1,44.779,27.139Z" transform="translate(-13.001 -10.275)"/><path class="b" d="M30.093,23.38s0,0,0,0h0c.01-.024.021-.048.033-.072a.6.6,0,0,0-.031.068m.041,19.11,0,0h0l0,0Zm-.028-21.055h0Zm-.343,20.943h.561a.783.783,0,0,0-.187.111.493.493,0,0,1,.178-.034.509.509,0,1,1-.483.662v.046a.814.814,0,0,0,.894.719.8.8,0,0,0,.755-.849.791.791,0,0,0-.495-.655l.517,0,0-1.015-.309,0V38.1a.787.787,0,0,1-.408-.848.871.871,0,0,1,.481.129c-.178.392.265.808.265.808a.87.87,0,0,1,.173-.712,1.4,1.4,0,0,1,.538-.462c.648-.325,1.532-.243,1.8.286a7.438,7.438,0,0,0,3.112-2.123l.824,1.4c1.932,0,1.259-1.447,1.133-1.573a1.055,1.055,0,0,1,1.07,1.052c0,1.779-5.173,2.033-5.173,4.193a1.43,1.43,0,0,0,.9,1.252c0,1.969-1.352,3.139-2.277,3.139-1.479,0-2.612-.3-2.612,1.313h.516c-.49.49-.033,1.208-.033,1.208-.1-.517.147-.945,1.091-.941h.589a.848.848,0,0,0,.017,1.115,1.018,1.018,0,0,1,1.065-1.106h.428c-.116.115.071.647.343.919a.738.738,0,0,1,.679-.919c2.215-.386.134-2.665,3.5-3.294,0,0-1.677-.252-1.677-1.17,0-.833,1.518-1.406,2.04-1.406a3.281,3.281,0,0,1,1.139.028c.136,1.323,1.655,1.259,1.986,1.259C43.989,42.933,42.373,45,42.373,45c-1.977,0-2.76.273-2.76,1.424h.374a.884.884,0,0,0,.054.935c0-.636.605-.813,1.381-.772h.408a.727.727,0,0,0,.047.892.847.847,0,0,1,1-.892h.34c-.127.128,0,.536.174.71a.635.635,0,0,1,.677-.7c1.388,0-.628-2.974,2.081-5.914-2.378,1.1-3.644-1.651-3.644-2.18,1.223,1.431,5.187,1.716,5.187-.726,0-1.971-1.828-2.9-1.677-3.675a1.167,1.167,0,1,1,1.6,1.188s0,0,0,0a.007.007,0,0,0,0,0,2,2,0,0,0,1.411-2.422,2,2,0,0,0-2.658-.889,2.484,2.484,0,0,0-1.114.82c.741-2.118,3.764-2.567,3.764-4.538,0-3.3-4.69-2.377-4.008,0a.837.837,0,0,1,.007-.105c.12-1.344,2.523-1.619,2.523.133,0,1.5-3.078,2.327-3.078,4.341,0,2.069,2.273,2.586,2.273,4.763,0,.259-.137,1.376-1.647,1.376A2.532,2.532,0,0,1,42.526,36.9h0c-.742-1.434-.47-3.673-1.305-4.568l.066-.921a1.339,1.339,0,0,0,1.406-2.218c0,.793-1.652.748-1.652-.748,0-2.026,1.893-.969,1.985-.522a4.08,4.08,0,0,1,0-1.63c-1.022.328-1.116-.261-.989-.49.15-.265.347-.573.744-.573.574,0,.538.211.507.508a4.3,4.3,0,0,1,.792-1.08l-.011-.375.3.11.288-.462c-.308-.639-.726-.33-1.035-1.123-.256-.067-3.63-.379-3.513-1.979-.3,0-1.111,1.029-.561,1.58h-.7a1.635,1.635,0,0,0-1.81.928c1.381-1.381,2.278,1.914-.266,1.914h0c-.375,0-.7-.156-.719-.42-.254,1.112,1.349,1.458,1.349,1.458A7.9,7.9,0,0,1,36.2,28.8c.263.263.345,1.851-.871,1.851.438-1.186-.851-2.19-2.1-2.855h0a3.6,3.6,0,0,1-.643-.317,13.647,13.647,0,0,0-1.394-.549V26a3.726,3.726,0,0,0,1.251-1.084,2.108,2.108,0,0,0,.479-1.53,1.663,1.663,0,0,0-.029-.2c0-.021-.008-.041-.012-.061-.01-.046-.021-.091-.035-.136-.006-.023-.012-.044-.02-.066-.015-.046-.031-.09-.048-.134l-.021-.054c-.025-.057-.053-.113-.082-.167-.012-.023-.026-.044-.038-.066s-.04-.066-.061-.1-.035-.052-.054-.078-.037-.05-.057-.073-.043-.055-.066-.081-.031-.034-.047-.05a2.157,2.157,0,0,0-.184-.177c-.007-.005-.012-.012-.018-.017-.036-.031-.074-.06-.113-.088l-.03-.022c-.041-.029-.082-.056-.126-.083l-.008,0a2.38,2.38,0,0,0-1.437-.343,2.56,2.56,0,0,0-.331.052,2.24,2.24,0,0,0-1.26,2.144,2.288,2.288,0,0,0,1.136,2.089l.028.009a2.442,2.442,0,0,1-.644.278l.038.024.012.006.042.023.012.006.064.033.012.005.065.028.019.008a1.882,1.882,0,0,0,.186.063l.028.008.083.019.03.006c.036.007.074.013.113.018a.015.015,0,0,1,.009,0,2.173,2.173,0,0,0,.527-.04V26.7a1.521,1.521,0,0,1-.527-.227l-.041.007c-.411.067-.679.194-.8.561s0,.5.2.76c-.164.29-.59.4-.034,1.044a.642.642,0,0,0,.365.749,2.049,2.049,0,0,0,.313.077.561.561,0,0,1,.527.61v4.149c.191.011.4.037.586.053V29.929a5.208,5.208,0,0,1,1.435.368l.02.012h0a1.106,1.106,0,0,1,.181.038.657.657,0,1,1-.37,1.214c.518.995,2.317.508,2.709-.3.191-.017.361.326.521.649a4.928,4.928,0,0,0,1.567.173s-4.518,2.884-5.825,2.884c-.558,0-1.8,0-1.8.422-.34,0-.831.578-.831.909a1.048,1.048,0,0,1,.584-.251.985.985,0,0,1,.429.082,1.9,1.9,0,0,0-.551,1c.378-.378.542-.377.542-.377s.395-.051.535.09a1.378,1.378,0,0,0-.261.841s.234-.452.527-.452v4.337c0,.133-.6.26-.845.26m.184-12.573c-.111,0-.164-.141-.165-.193s.039-.2.15-.2a1.852,1.852,0,0,1,.8.17,1.843,1.843,0,0,1-.781.228Zm-.171-.716c-.153-.011-.2-.218-.2-.291s.086-.27.239-.259a2.554,2.554,0,0,1,1.07.355A2.529,2.529,0,0,1,29.776,28.542Zm-.063-.917c-.163-.043-.176-.275-.156-.352s.146-.273.309-.23a2.786,2.786,0,0,1,1.079.594,2.787,2.787,0,0,1-1.232-.012Zm1.2-2.584a1.059,1.059,0,0,0,.011-.586H30.9a.844.844,0,0,1-.844-.843.515.515,0,0,1,.031-.228h0a.006.006,0,0,1,0,0,.843.843,0,0,1,1.654.232,2.047,2.047,0,0,1-.834,1.429Z" transform="translate(-12.801 -9.257)"/><path class="e" d="M55.389,29.11a1.18,1.18,0,0,0,2.188-.714c0-.023-.007-.045-.01-.068a1.032,1.032,0,0,1-.969.667,1.206,1.206,0,0,1-.93-.266l-.28.381" transform="translate(-24.617 -12.59)"/><path class="c" d="M51.748,25.8l.407.021-.2.28s-.272.086-.2-.3m-.972,0h.587s-.021.474.407.516l-.091.151S50.528,26.164,50.776,25.8Z" transform="translate(-22.551 -11.466)"/><path class="f" d="M30.564,27.636a2.785,2.785,0,0,0-1.079-.594c-.163-.042-.289.154-.309.23s-.006.31.156.352a2.787,2.787,0,0,0,1.232.012m-.058.711a2.554,2.554,0,0,0-1.07-.355c-.153-.011-.234.187-.239.259s.045.28.2.291A2.526,2.526,0,0,0,30.506,28.347ZM29.7,26.2v.272a1.519,1.519,0,0,0,.527.227v-.539a2.17,2.17,0,0,1-.527.04Zm-.149,2.656c-.111,0-.153.152-.15.2s.054.2.165.193a1.84,1.84,0,0,0,.781-.228,1.853,1.853,0,0,0-.8-.17Zm-.545,7.186a.977.977,0,0,0-.123,1.085,1.9,1.9,0,0,1,.551-1A.986.986,0,0,0,29.006,36.046Zm1.4,1.2a.789.789,0,0,0,.615.922.814.814,0,0,0,.091.014h.04s-.443-.415-.265-.808a.869.869,0,0,0-.481-.129Zm-.8-11.582a2.288,2.288,0,0,1-1.136-2.088,2.24,2.24,0,0,1,1.26-2.144,2.164,2.164,0,0,0-.124,4.233Zm7.05-2.331a.772.772,0,0,1,.944.718,1.156,1.156,0,0,1-1.21,1.2h0c2.544,0,1.648-3.295.266-1.914Zm-1.7,7.311c1.216,0,1.134-1.588.871-1.851a7.9,7.9,0,0,0,1.193-2.509s-1.6-.346-1.348-1.46a0,0,0,0,1,0,0l-.021,0a1.1,1.1,0,0,0,.522,1.664,4.334,4.334,0,0,1-.929,1.729,7.76,7.76,0,0,1-2.391-.422c1.252.665,2.542,1.669,2.1,2.855ZM30.2,23.023a.565.565,0,0,1,.618.5.554.554,0,0,1-.523.588.563.563,0,0,1-.618-.5.844.844,0,0,0,.844.843h.021a1.059,1.059,0,0,1-.011.586,2.046,2.046,0,0,0,.834-1.429.844.844,0,0,0-1.656-.228.57.57,0,0,1,.492-.361Zm8.96-.614c-.55-.551.263-1.58.561-1.58-.326,0-1.742.927-1.262,1.58Zm-7.084,9.152a.657.657,0,1,0,.37-1.214,1.107,1.107,0,0,0-.181-.038c.631.36.624,1.081-.189,1.252Zm-1.265-4.634a13.646,13.646,0,0,1,1.394.549,2.7,2.7,0,0,1-.429-.326,3.09,3.09,0,0,0-.965-.672v.449h0Zm.237,8.039c1.307,0,5.825-2.885,5.825-2.885a4.928,4.928,0,0,1-1.567-.173c-.252.131-.769.391-1.871,1.04a16.125,16.125,0,0,1-2.315,1.486.762.762,0,0,1-.309.051c-.188-.016-.4-.042-.586-.053V30.284a.561.561,0,0,0-.527-.61V34.5a1.306,1.306,0,0,0-.623.638s-.674-.09-.654,1.157c0-.331.491-.909.831-.909,0-.422,1.238-.422,1.8-.422Zm11.27,6.679c-.331,0-1.85.064-1.986-1.259a3.286,3.286,0,0,0-1.139-.028c1.074,2.049,2.239,2.065,2.544,2.081.475.529.316,2.317-.37,2.281-2.51-.134-2.418,1.393-2.137,1.706,0-1.151.783-1.424,2.76-1.424,0,0,1.616-2.068.328-3.357Zm.516,4.944H42.5a.726.726,0,0,0,.514.71c-.175-.174-.3-.582-.175-.71Zm-3.176.772a.884.884,0,0,1-.054-.935h-.374A1.16,1.16,0,0,0,39.66,47.361ZM47.152,28.3c0-1.753-2.4-1.477-2.523-.131a.858.858,0,0,1,1.712.1c0,1.277-3,2.113-3,4.272,0,2.378,2.378,2.6,2.137,4.772a1.059,1.059,0,0,1-1.028.868A2.345,2.345,0,0,1,42.145,36.9,2.532,2.532,0,0,0,44.7,38.778c1.51,0,1.647-1.116,1.647-1.376,0-2.177-2.273-2.694-2.273-4.763,0-2.014,3.078-2.844,3.078-4.341ZM29.426,36.754a1.307,1.307,0,0,0,.274.932,1.378,1.378,0,0,1,.261-.841C29.821,36.7,29.426,36.754,29.426,36.754Zm17.37-3.71a1.166,1.166,0,0,0-1.162,1.063.713.713,0,0,1,.309-.421c.7-.52,2.069.527,1.288,1.609a1.167,1.167,0,0,0-.434-2.25ZM41.448,46.588h-.408c-.042.775.454.892.454.892A.728.728,0,0,1,41.448,46.588ZM29.934,42.454a.5.5,0,0,0-.178.034.761.761,0,0,0-.3.628.508.508,0,1,0,.483-.662ZM32.8,46.218h-.589c-.005.944.606,1.115.606,1.115A.849.849,0,0,1,32.8,46.218Zm1.827-5.971c0-2.16,5.173-2.413,5.173-4.193A1.055,1.055,0,0,0,38.727,35c.126.126.8,1.573-1.133,1.573-1.747.585-5.551,3.892-2.911,5.038,0,.332-.046,2.807-1.632,2.613-2.285-.283-2.855.662-2.416,1.725,0-1.613,1.133-1.313,2.612-1.313.925,0,2.277-1.17,2.277-3.139a1.43,1.43,0,0,1-.9-1.252Zm-4.4,1.324V37.234c-.293,0-.527.452-.527.452v3.676h-.32l0,.467c.246,0,.845-.127.845-.26Zm.89,5.588s-.457-.718.033-1.208h-.516A1.009,1.009,0,0,0,31.117,47.159Zm3.189-.931h-.428c0,.666.771.919.771.919C34.377,46.875,34.19,46.342,34.306,46.228Z" transform="translate(-12.421 -9.257)"/><line class="g" transform="translate(42.906 20.042)"/><path class="c" d="M9.609,51.981l-.029-.088L9.568,51.8c-.042-.312-.117-.893-.566-1a.607.607,0,0,0-.376.041.608.608,0,0,0-.012-.378c-.165-.43-.751-.425-1.065-.42H7.457l-.091-.017c-.309-.057-.885-.165-1.122.23a.606.606,0,0,0-.078.37.6.6,0,0,0-.362-.106c-.46.025-.636.583-.73.884l-.029.087L5,51.578c-.151.277-.431.79-.128,1.138A.6.6,0,0,0,5.2,52.9a.6.6,0,0,0-.211.313c-.12.444.357.784.613.966l.075.055.065.065c.217.229.619.653,1.043.474a.611.611,0,0,0,.28-.253.617.617,0,0,0,.232.3c.386.25.856-.1,1.109-.284l.075-.055.083-.041c.284-.136.813-.387.773-.846a.6.6,0,0,0-.154-.344.6.6,0,0,0,.354-.128c.358-.29.172-.844.072-1.143" transform="translate(-2.106 -22.211)"/><path class="e" d="M9.874,53.224c2.575,1.522,1.782-.152,1.725-.4s-.079-2.1-1.725.4" transform="translate(-4.389 -23.081)"/><path class="e" d="M9.442,54.942c-.652,2.918.695,1.648.912,1.518s1.971-.724-.912-1.518" transform="translate(-4.118 -24.419)"/><path class="e" d="M7.419,54.879c-2.978.281-1.353,1.17-1.162,1.336s1.3,1.651,1.162-1.336" transform="translate(-2.508 -24.39)"/><path class="e" d="M7.14,52.95c-1.189-2.745-1.531-.925-1.63-.691S4.339,54,7.14,52.95" transform="translate(-2.323 -22.867)"/><path class="c" d="M81.44,51.578,81.4,51.5l-.029-.087c-.094-.3-.27-.859-.729-.884a.609.609,0,0,0-.363.1.616.616,0,0,0-.078-.369c-.238-.395-.813-.287-1.122-.23l-.092.017h-.092c-.313,0-.9-.009-1.064.421a.6.6,0,0,0-.013.377.6.6,0,0,0-.375-.041c-.448.1-.525.685-.565,1l-.014.091-.028.088c-.1.3-.287.853.072,1.143a.6.6,0,0,0,.354.128.605.605,0,0,0-.154.344c-.04.459.489.71.773.846l.082.041.075.055c.254.186.724.534,1.109.284a.605.605,0,0,0,.232-.3.61.61,0,0,0,.28.253c.424.179.826-.245,1.043-.474l.065-.065.074-.055c.256-.182.733-.522.614-.966a.606.606,0,0,0-.212-.313.6.6,0,0,0,.327-.188c.3-.348.023-.861-.128-1.138" transform="translate(-34.087 -22.211)"/><path class="e" d="M80.257,52.3c-2.243-1.978-.406-1.742-.154-1.764s2.02-.573.154,1.764" transform="translate(-35.181 -22.427)"/><path class="e" d="M79.068,53.224c-2.575,1.522-1.784-.152-1.726-.4s.078-2.1,1.726.4" transform="translate(-34.303 -23.081)"/><path class="e" d="M79.556,54.942c.652,2.918-.695,1.648-.912,1.518s-1.97-.724.912-1.518" transform="translate(-34.63 -24.419)"/><path class="e" d="M81.6,54.879c2.978.281,1.354,1.17,1.162,1.336s-1.3,1.651-1.162-1.336" transform="translate(-36.262 -24.39)"/><path class="e" d="M81.776,52.95c1.189-2.745,1.531-.925,1.631-.691s1.17,1.743-1.631.691" transform="translate(-36.345 -22.867)"/><path class="c" d="M80.949,53.218c0-.024-.011-.045-.014-.068l.5-.364-.025-.056-.59.1a.893.893,0,0,0-.675-.427c-.09-.27-.18-.546-.18-.546l-.061.005s-.041.287-.082.568a.888.888,0,0,0-.449.286.938.938,0,0,0-.145.252h-.6l-.013.06.552.269c0,.024,0,.048,0,.072a.884.884,0,0,0,.306.6c-.093.291-.2.616-.2.616l.051.031.457-.471a.879.879,0,0,0,.353.041.889.889,0,0,0,.342-.1l.531.383.046-.04-.3-.571a.894.894,0,0,0,.2-.642" transform="translate(-34.94 -23.049)"/><path class="e" d="M80.743,53.495a.516.516,0,0,0-.359.187.521.521,0,0,0-.122.385.529.529,0,1,0,.481-.572" transform="translate(-35.671 -23.774)"/><path class="e" d="M8.635,52.3c2.243-1.978.406-1.742.154-1.764s-2.021-.573-.154,1.764" transform="translate(-3.462 -22.427)"/><path class="c" d="M9.027,53.3l.552-.27-.013-.06h-.6a.9.9,0,0,0-.145-.251.888.888,0,0,0-.449-.287l-.081-.568-.062-.005s-.089.275-.178.546a.893.893,0,0,0-.677.427l-.591-.1-.023.056.5.364c0,.023-.011.045-.013.068a.892.892,0,0,0,.2.642l-.3.571.047.04.53-.383a.9.9,0,0,0,.342.1.877.877,0,0,0,.353-.041l.456.471.053-.031-.2-.615a.892.892,0,0,0,.306-.6.687.687,0,0,0,0-.072" transform="translate(-3.005 -23.049)"/><path class="e" d="M9.219,53.682a.515.515,0,0,0-.359-.187.528.528,0,1,0,.359.187" transform="translate(-3.682 -23.775)"/><path class="c" d="M7.733,31.337a2.31,2.31,0,1,0,1.874,2.676,2.313,2.313,0,0,0-1.874-2.676" transform="translate(-2.232 -13.912)"/><path class="e" d="M8.758,33.617l-.1-.064-.571-.379-.151-.1c-.165-.111-.313-.207-.452-.287-.054-.03-.105-.059-.157-.084a1.812,1.812,0,0,0-.682-.2,2.05,2.05,0,0,0-.5.51,13.048,13.048,0,0,1,2.3,1.265c.067-.154.29-.63.3-.659" transform="translate(-2.734 -14.445)"/><path class="e" d="M7.986,35.384c.023-.058.126-.318.168-.418A12.771,12.771,0,0,0,5.826,33.69a2.013,2.013,0,0,0-.2.521,4.392,4.392,0,0,0,2.36,1.172" transform="translate(-2.5 -14.973)"/><path class="e" d="M9.263,32.871a1.608,1.608,0,0,1,1.35-.059,2.035,2.035,0,0,0-.53-.483,1.562,1.562,0,0,0-1.292.239c.148.087.3.189.472.3" transform="translate(-3.907 -14.349)"/><path class="e" d="M6.025,36.232c.06.041.121.08.187.117a3.02,3.02,0,0,0,.422.19c.063.024.126.046.19.066.224.074.74.208.778.217l.274-.678a5.126,5.126,0,0,1-2.333-1.112,2.01,2.01,0,0,0,.032.681,1.3,1.3,0,0,0,.45.52" transform="translate(-2.457 -15.569)"/><path class="e" d="M8.727,38.43l-.186-.048c-.173-.044-.36-.093-.55-.151a1.294,1.294,0,0,0,.394.471A2.026,2.026,0,0,0,9,38.69a2.166,2.166,0,0,1-.271-.26" transform="translate(-3.551 -16.992)"/><path class="e" d="M11.456,33.924a2.035,2.035,0,0,0-.168-.4,1.637,1.637,0,0,0-1.355-.081l.645.426a3.294,3.294,0,0,1,.372-.013c.062,0,.119,0,.174.01a2.087,2.087,0,0,1,.332.056" transform="translate(-4.414 -14.813)"/><path class="e" d="M11.32,34.612A3.837,3.837,0,0,1,10.37,37,2.022,2.022,0,0,0,11.7,34.687a1.921,1.921,0,0,0-.379-.075" transform="translate(-4.609 -15.383)"/><path class="e" d="M8.031,32.264a1.508,1.508,0,0,1,.988-.364,1.867,1.867,0,0,0-.257-.065,2.018,2.018,0,0,0-1.318.216,2.16,2.16,0,0,1,.587.213" transform="translate(-3.308 -14.135)"/><path class="e" d="M10.432,34.6c-.153.32-.244.515-.319.693-.023.054-.045.106-.068.161l-.146.367-.066.163-.285.706a1.214,1.214,0,0,0,.267.256,3.694,3.694,0,0,0,.966-2.357,2.866,2.866,0,0,0-.35.011" transform="translate(-4.244 -15.374)"/><path class="e" d="M7.272,37.969a3.723,3.723,0,0,1-.418-.17,1.9,1.9,0,0,0,.195.41,2.021,2.021,0,0,0,.5.229,1.3,1.3,0,0,1-.274-.469" transform="translate(-3.046 -16.799)"/><path class="e" d="M6.262,37.439a2.006,2.006,0,0,1-.269-.193,2.038,2.038,0,0,0,.35.457,1.676,1.676,0,0,1-.081-.264" transform="translate(-2.664 -16.554)"/><path class="c" d="M76.695,34.013a2.31,2.31,0,1,0,1.874-2.676,2.313,2.313,0,0,0-1.874,2.676" transform="translate(-34.071 -13.912)"/><path class="e" d="M79.155,33.617l.1-.064c.19-.126.56-.371.57-.379l.152-.1c.163-.111.312-.207.451-.287.053-.03.106-.059.157-.084a1.812,1.812,0,0,1,.682-.2,2.014,2.014,0,0,1,.494.51,13.118,13.118,0,0,0-2.3,1.265c-.067-.154-.289-.63-.3-.659" transform="translate(-35.18 -14.445)"/><path class="e" d="M79.992,35.384c-.024-.058-.127-.318-.167-.418a12.71,12.71,0,0,1,2.327-1.276,2.035,2.035,0,0,1,.2.521,4.4,4.4,0,0,1-2.36,1.172" transform="translate(-35.478 -14.973)"/><path class="e" d="M79.278,32.871a1.609,1.609,0,0,0-1.351-.059,2.045,2.045,0,0,1,.532-.483,1.559,1.559,0,0,1,1.291.239c-.147.087-.3.189-.471.3" transform="translate(-34.634 -14.349)"/><path class="e" d="M82.094,36.232a2.033,2.033,0,0,1-.186.117,2.989,2.989,0,0,1-.421.19c-.063.024-.127.046-.191.066-.223.074-.739.208-.778.217-.009-.02-.2-.5-.274-.678a5.136,5.136,0,0,0,2.334-1.112,2.034,2.034,0,0,1-.033.681,1.3,1.3,0,0,1-.451.52" transform="translate(-35.664 -15.569)"/><path class="e" d="M80.468,38.43l.185-.048c.173-.044.361-.093.552-.151a1.312,1.312,0,0,1-.395.471,2.02,2.02,0,0,1-.612-.012,2.269,2.269,0,0,0,.27-.26" transform="translate(-35.644 -16.992)"/><path class="e" d="M77.324,33.924a1.959,1.959,0,0,1,.169-.4,1.633,1.633,0,0,1,1.353-.081l-.645.426a3.3,3.3,0,0,0-.372-.013c-.061,0-.119,0-.174.01a2.09,2.09,0,0,0-.331.056" transform="translate(-34.366 -14.813)"/><path class="e" d="M77.583,34.612A3.832,3.832,0,0,0,78.534,37a2.029,2.029,0,0,1-1.34-1.566,2,2,0,0,1,.011-.749,1.911,1.911,0,0,1,.379-.075" transform="translate(-34.295 -15.383)"/><path class="e" d="M80.709,32.264a1.51,1.51,0,0,0-.988-.364,1.828,1.828,0,0,1,.257-.065,2.017,2.017,0,0,1,1.317.216,2.158,2.158,0,0,0-.586.213" transform="translate(-35.431 -14.135)"/><path class="e" d="M78.581,34.6c.154.32.242.515.32.693l.066.161c.036.089.147.367.147.367l.065.163.286.706a1.219,1.219,0,0,1-.267.256,3.688,3.688,0,0,1-.966-2.357,2.858,2.858,0,0,1,.35.011" transform="translate(-34.769 -15.374)"/><path class="e" d="M82.174,37.969a3.819,3.819,0,0,0,.418-.17,1.918,1.918,0,0,1-.2.41,2.024,2.024,0,0,1-.5.229,1.3,1.3,0,0,0,.274-.469" transform="translate(-36.4 -16.799)"/><path class="e" d="M83.458,37.439a2.114,2.114,0,0,0,.268-.193,2.028,2.028,0,0,1-.349.457,1.86,1.86,0,0,0,.081-.264" transform="translate(-37.056 -16.554)"/></svg>